<svg width="1975" height="2425" xmlns="http://www.w3.org/2000/svg" xmlns:xlink="http://www.w3.org/1999/xlink" xml:space="preserve" overflow="hidden"><g transform="translate(-513 -22)"><g><path d="M1448.97 52.0223C1476.72 24.3198 1521.68 24.3611 1549.38 52.1146L2366.9 871.136C2394.6 898.89 2394.56 943.846 2366.81 971.548L1547.79 1789.07C1520.03 1816.77 1475.08 1816.73 1447.37 1788.97L629.857 969.952C602.154 942.198 602.196 897.242 629.949 869.54Z" stroke="#23B8C4" stroke-width="6.875" stroke-linecap="butt" stroke-linejoin="miter" stroke-miterlimit="8" stroke-opacity="1" fill="#23B8C4" fill-rule="evenodd" fill-opacity="1"/><path d="M2437.83 961C2465.54 961 2488 983.462 2488 1011.17L2488 1828.83C2488 1856.54 2465.54 1879 2437.83 1879L567.169 1879C539.462 1879 517 1856.54 517 1828.83L517 1011.17C517 983.462 539.462 961 567.169 961Z" fill="#FFFFFF" fill-rule="evenodd" fill-opacity="1"/><rect x="863" y="961" width="1280" height="1227" fill="#23B8C4" fill-opacity="1"/><rect x="1008" y="988" width="1003" height="1068" fill="#FFFFFF" fill-opacity="1"/><path d="M1820.5 1522.5C1820.5 1479.42 1855.42 1444.5 1898.5 1444.5 1941.58 1444.5 1976.5 1479.42 1976.5 1522.5 1976.5 1565.58 1941.58 1600.5 1898.5 1600.5 1855.42 1600.5 1820.5 1565.58 1820.5 1522.5Z" stroke="#23B8C4" stroke-width="6.875" stroke-linecap="butt" stroke-linejoin="miter" stroke-miterlimit="8" stroke-opacity="1" fill="#23B8C4" fill-rule="evenodd" fill-opacity="1"/><path d="M1008 761.587C1008 739.171 1026.17 721 1048.59 721L1970.41 721C1992.83 721 2011 739.171 2011 761.587L2011 865.413C2011 887.829 1992.83 906 1970.41 906L1048.59 906C1026.17 906 1008 887.829 1008 865.413Z" fill="#FFFFFF" fill-rule="evenodd" fill-opacity="1"/><text fill="#23B8C4" fill-opacity="1" font-family="Cooper Black,Cooper Black_MSFontService,sans-serif" font-style="normal" font-variant="normal" font-weight="900" font-stretch="normal" font-size="92" text-anchor="start" direction="ltr" writing-mode="lr-tb" unicode-bidi="normal" text-decoration="none" transform="matrix(1 0 0 1 1077.99 847)">Little Free Library</text><rect x="1026.5" y="1226.5" width="112" height="821" stroke="#FFFFFF" stroke-width="6.875" stroke-linecap="butt" stroke-linejoin="miter" stroke-miterlimit="8" stroke-opacity="1" fill="#23B8C4" fill-opacity="1"/><rect x="1142.5" y="1226.5" width="112" height="821" stroke="#FFFFFF" stroke-width="6.875" stroke-linecap="butt" stroke-linejoin="miter" stroke-miterlimit="8" stroke-opacity="1" fill="#23B8C4" fill-opacity="1"/><path d="M1489.96 1287.35 1601.88 1280.49 1648.49 2040.02 1536.57 2046.89Z" stroke="#FFFFFF" stroke-width="6.875" stroke-linecap="butt" stroke-linejoin="miter" stroke-miterlimit="8" stroke-opacity="1" fill="#23B8C4" fill-rule="nonzero" fill-opacity="1"/><rect x="1260.5" y="1226.5" width="112" height="821" stroke="#FFFFFF" stroke-width="6.875" stroke-linecap="butt" stroke-linejoin="miter" stroke-miterlimit="8" stroke-opacity="1" fill="#23B8C4" fill-opacity="1"/><rect x="1378.5" y="1226.5" width="112" height="821" stroke="#FFFFFF" stroke-width="6.875" stroke-linecap="butt" stroke-linejoin="miter" stroke-miterlimit="8" stroke-opacity="1" fill="#23B8C4" fill-opacity="1"/><rect x="1336" y="2184" width="325" height="260" fill="#23B8C4" fill-opacity="1"/><g><g><g><path d="M1525.08 1024.67 1470.92 1024.67C1466.31 1024.67 1462.79 1021.15 1462.79 1016.54 1462.79 1011.94 1466.31 1008.42 1470.92 1008.42L1525.08 1008.42C1529.69 1008.42 1533.21 1011.94 1533.21 1016.54 1533.21 1021.15 1529.69 1024.67 1525.08 1024.67Z" fill="#23B8C4" fill-rule="nonzero" fill-opacity="1"/><path d="M1525.08 997.583 1470.92 997.583C1466.31 997.583 1462.79 994.063 1462.79 989.458 1462.79 984.854 1466.31 981.333 1470.92 981.333L1525.08 981.333C1529.69 981.333 1533.21 984.854 1533.21 989.458 1533.21 994.063 1529.69 997.583 1525.08 997.583Z" fill="#23B8C4" fill-rule="nonzero" fill-opacity="1"/><path d="M1515.6 970.5C1514.79 961.292 1507.21 954.25 1498 954.25 1488.79 954.25 1481.21 961.292 1480.4 970.5L1515.6 970.5Z" fill="#23B8C4" fill-rule="nonzero" fill-opacity="1"/><path d="M1498 1181.75C1498 1181.75 1498 1181.75 1498 1181.75 1498 1181.75 1498 1181.75 1498 1181.75 1536.46 1181.48 1567.6 1150.6 1568.42 1112.15L1568.42 1109.71C1568.15 1101.31 1566.52 1093.19 1563.54 1085.33 1560.56 1078.02 1556.5 1071.25 1551.35 1065.29 1544.85 1058.25 1537.81 1044.44 1534.83 1038.48 1534.02 1036.58 1532.12 1035.5 1529.96 1035.5L1466.04 1035.5C1463.88 1035.5 1461.98 1036.58 1461.17 1038.48 1458.19 1044.44 1451.15 1058.25 1444.65 1065.29 1439.5 1071.25 1435.17 1078.02 1432.46 1085.33 1429.48 1093.19 1427.85 1101.31 1427.58 1109.71L1427.58 1112.15C1428.4 1150.6 1459.54 1181.48 1498 1181.75ZM1443.83 1109.98C1444.1 1103.48 1445.46 1096.98 1447.63 1091.02 1449.79 1085.6 1452.77 1080.46 1456.83 1076.12 1463.06 1068.54 1468.48 1060.42 1472.54 1051.75L1498 1051.75 1523.19 1051.75C1527.52 1060.42 1532.94 1068.54 1538.9 1076.12 1542.69 1080.46 1545.94 1085.6 1548.1 1091.02 1550.54 1096.98 1551.62 1103.48 1551.9 1109.98L1551.9 1112.15C1551.35 1141.67 1527.25 1165.5 1497.73 1165.77 1497.73 1165.77 1497.73 1165.77 1497.73 1165.77 1497.73 1165.77 1497.73 1165.77 1497.73 1165.77 1468.21 1165.5 1444.1 1141.94 1443.56 1112.15L1443.56 1109.98Z" fill="#23B8C4" fill-rule="nonzero" fill-opacity="1"/></g></g></g></g></g></svg>